<svg width="250" height="250" viewBox="0 0 250 250" fill="none" xmlns="http://www.w3.org/2000/svg">
<g clip-path="url(#clip0_1_2)">
<g clip-path="url(#clip1_1_2)">
<circle cx="124.5" cy="124.5" r="113.5" fill="#010A0A"/>
<path d="M125 1.60357e-10C108.585 -2.62923e-05 92.3304 3.23318 77.1646 9.51502C61.9989 15.7969 48.219 25.0043 36.6116 36.6116C25.0043 48.219 15.7969 61.9989 9.51502 77.1646C3.23318 92.3304 -2.62923e-05 108.585 1.60356e-10 125C1.89434e-05 141.415 3.23326 157.67 9.51512 172.836C15.797 188.001 25.0044 201.781 36.6118 213.388C48.2191 224.996 61.999 234.203 77.1647 240.485C92.3304 246.767 108.585 250 125 250C158.152 250 189.946 236.83 213.388 213.388C236.83 189.946 250 158.152 250 125C250 108.585 246.767 92.3304 240.485 77.1647C234.203 61.999 224.996 48.2191 213.388 36.6118C201.781 25.0044 188.001 15.797 172.836 9.51512C157.67 3.23326 141.415 1.89434e-05 125 1.60357e-10ZM156.654 26.4656L142.267 93.6147C141.558 98.3146 144.183 100.358 146.94 100.454L189.058 100.318L91.4477 225.217L105.803 157.435C106.415 153.8 104.36 150.593 100.217 150.765L58.9451 150.698L156.654 26.4656Z" fill="#15F4EE"/>
</g>
</g>
<defs>
<clipPath id="clip0_1_2">
<rect width="250" height="250" fill="white"/>
</clipPath>
<clipPath id="clip1_1_2">
<rect width="250" height="250" fill="white"/>
</clipPath>
</defs>
</svg>
