<svg width="24" height="24" viewBox="0 0 24 24" fill="none" xmlns="http://www.w3.org/2000/svg">
<g clip-path="url(#clip0_1084_2)">
<path d="M12 0C10.4242 -2.52406e-06 8.86372 0.310385 7.4078 0.913442C5.95189 1.5165 4.62902 2.40041 3.51471 3.51471C2.40041 4.62902 1.5165 5.95189 0.913442 7.4078C0.310385 8.86372 -2.52406e-06 10.4242 0 12C1.81857e-06 13.5758 0.310393 15.1363 0.913451 16.5923C1.51651 18.0481 2.40042 19.371 3.51473 20.4852C4.62903 21.5996 5.9519 22.4835 7.40781 23.0866C8.86372 23.6896 10.4242 24 12 24C15.1826 24 18.2348 22.7357 20.4852 20.4852C22.7357 18.2348 24 15.1826 24 12C24 10.4242 23.6896 8.86372 23.0866 7.40781C22.4835 5.9519 21.5996 4.62903 20.4852 3.51473C19.371 2.40042 18.0481 1.51651 16.5923 0.913451C15.1363 0.310393 13.5758 1.81857e-06 12 0ZM15.0388 2.5407L13.6576 8.98701C13.5896 9.4382 13.8416 9.63437 14.1062 9.64358L18.1496 9.63053L8.77898 21.6208L10.1571 15.1138C10.2158 14.7648 10.0186 14.4569 9.62083 14.4734L5.65873 14.467L15.0388 2.5407Z" fill="white"/>
</g>
<defs>
<clipPath id="clip0_1084_2">
<rect width="24" height="24" fill="white"/>
</clipPath>
</defs>
</svg>
